<?xml version="1.0"?>
<svg xmlns="http://www.w3.org/2000/svg" width="50" height="50" viewBox="0 0 50 50">
    <path d="M 10 14 C 9.448 14 9 14.448 9 15 L 9 19 L 5 19 C 4.448 19 4 19.448 4 20 L 4 29 L 14 29 L 14 24.40625 L 15.71875 22.71875 C 15.90675 22.53175 16 22.265 16 22 L 16 20 C 16 19.448 15.552 19 15 19 L 11 19 L 11 15 C 11 14.448 10.552 14 10 14 z M 38 24 C 36.678 24 35.6975 24.27625 34.9375 24.90625 C 34.5305 25.24525 34.21925 25.84525 33.78125 26.65625 C 32.79225 28.48825 31.442 31 29 31 L 14 31 L 4 31 L 3 31 C 1.458 31 2.9605947e-16 32.4335 0 33.9375 L 0 36.875 C 0 38.222 0.9685 40.2025 2.5625 41.9375 C 2.6535 41.9405 2.75275 41.9375 2.84375 41.9375 C 3.96575 41.9375 5.60525 41.603 6.53125 40.875 C 7.05825 40.457 7.703 40.21875 8.375 40.21875 C 9.044 40.21875 9.722 40.46 10.25 40.875 C 11.181 41.607 12.8165 41.9375 13.9375 41.9375 C 15.0595 41.9375 16.66975 41.602 17.59375 40.875 C 18.12075 40.456 18.79475 40.21875 19.46875 40.21875 C 20.13875 40.21875 20.7875 40.46 21.3125 40.875 C 22.2445 41.607 23.879 41.9375 25 41.9375 C 26.121 41.9375 27.7585 41.606 28.6875 40.875 C 29.2135 40.46 29.86025 40.21875 30.53125 40.21875 C 31.20225 40.21875 31.88325 40.461 32.40625 40.875 C 33.33825 41.607 34.9405 41.9375 36.0625 41.9375 C 37.1845 41.9375 38.823 41.605 39.75 40.875 C 40.277 40.458 40.954 40.21875 41.625 40.21875 C 42.296 40.21875 42.94475 40.46 43.46875 40.875 C 43.55875 40.945 43.648 40.9995 43.75 41.0625 C 47.258 36.8755 50 30.877 50 26.5 C 50 24.324 48.52825 24 47.65625 24 L 38 24 z M 39.65625 29.34375 C 40.27725 29.34375 40.34375 29.71875 40.34375 29.71875 L 40.34375 30.53125 C 40.34375 30.53125 40.409 30.90625 41 30.90625 C 41.591 30.90625 41.65625 30.53125 41.65625 30.53125 L 41.65625 29.71875 C 41.65625 29.71875 41.72275 29.34375 42.34375 29.34375 C 42.96475 29.34375 43 29.71875 43 29.71875 L 43 31.0625 C 43 31.9815 42.09375 32 42.09375 32 L 40.0625 32 C 40.0625 32 39 31.94925 39 31.03125 L 39 29.71875 C 39 29.71875 39.03825 29.34375 39.65625 29.34375 z M 8.375 42.21875 C 8.156375 42.21875 7.96225 42.294 7.78125 42.4375 C 6.38025 43.5395 4.23775 43.9375 2.84375 43.9375 C 2.28875 43.9375 1.75825 43.9045 1.15625 43.8125 C 0.61725 43.7305 0.084 44.11025 0 44.65625 C -0.084 45.20225 0.29775 45.69825 0.84375 45.78125 C 1.54875 45.88925 2.18575 45.9375 2.84375 45.9375 C 4.44275 45.9375 6.64 45.5255 8.375 44.4375 C 10.11 45.5255 12.3395 45.9375 13.9375 45.9375 C 15.5365 45.9375 17.73375 45.5255 19.46875 44.4375 C 21.20475 45.5255 23.402 45.9375 25 45.9375 C 26.598 45.9375 28.79625 45.5265 30.53125 44.4375 C 32.26625 45.5265 34.4635 45.9375 36.0625 45.9375 C 37.6615 45.9375 39.89 45.5255 41.625 44.4375 C 43.36 45.5255 45.55725 45.9375 47.15625 45.9375 C 47.94925 45.9375 48.67175 45.83075 49.34375 45.59375 C 49.86375 45.41075 50.1205 44.8335 49.9375 44.3125 C 49.7545 43.7915 49.17725 43.5025 48.65625 43.6875 C 48.20125 43.8475 47.71925 43.9375 47.15625 43.9375 C 45.76125 43.9375 43.61875 43.5405 42.21875 42.4375 C 41.85575 42.1505 41.363 42.1505 41 42.4375 C 39.6 43.5395 37.4565 43.9375 36.0625 43.9375 C 34.6685 43.9375 32.55825 43.5415 31.15625 42.4375 C 30.79525 42.1525 30.26725 42.1525 29.90625 42.4375 C 28.50425 43.5405 26.394 43.9375 25 43.9375 C 23.606 43.9375 21.4645 43.5415 20.0625 42.4375 C 19.6995 42.1515 19.20575 42.1505 18.84375 42.4375 C 17.44375 43.5395 15.3315 43.9375 13.9375 43.9375 C 12.5445 43.9375 10.401 43.5415 9 42.4375 C 8.8185 42.295 8.593625 42.21875 8.375 42.21875 z M 8.25 46.21875 A 1.0001 1.0001 0 0 0 7.78125 46.4375 C 6.4289437 47.502328 4.1996954 47.9375 2.84375 47.9375 C 2.2136534 47.9375 1.6776227 47.89141 1.15625 47.8125 A 1.0001 1.0001 0 1 0 0.84375 49.78125 C 1.4323773 49.87034 2.0938466 49.9375 2.84375 49.9375 C 4.3951691 49.9375 6.548672 49.48825 8.375 48.3125 C 10.204984 49.498591 12.380448 49.9375 13.9375 49.9375 C 15.485618 49.9375 17.644981 49.513355 19.46875 48.34375 C 21.293098 49.513159 23.451882 49.9375 25 49.9375 C 26.548118 49.9375 28.707152 49.51309 30.53125 48.34375 C 32.355598 49.513159 34.514382 49.9375 36.0625 49.9375 C 37.619552 49.9375 39.795016 49.498591 41.625 48.3125 C 43.451328 49.48825 45.604831 49.9375 47.15625 49.9375 C 48.018093 49.9375 48.748651 49.80336 49.34375 49.59375 A 1.0132183 1.0132183 0 0 0 48.65625 47.6875 C 48.263349 47.82589 47.804407 47.9375 47.15625 47.9375 C 45.800305 47.9375 43.571056 47.502328 42.21875 46.4375 A 1.0001 1.0001 0 0 0 41 46.4375 C 39.647538 47.50245 37.418445 47.9375 36.0625 47.9375 C 34.706555 47.9375 32.50991 47.502743 31.15625 46.4375 A 1.0001 1.0001 0 0 0 29.90625 46.4375 C 28.552434 47.502866 26.355945 47.9375 25 47.9375 C 23.644055 47.9375 21.44741 47.502743 20.09375 46.4375 A 1.0001 1.0001 0 0 0 18.84375 46.4375 C 17.491288 47.50245 15.293445 47.9375 13.9375 47.9375 C 12.581555 47.9375 10.352462 47.50245 9 46.4375 A 1.0001 1.0001 0 0 0 8.34375 46.21875 A 1.0001 1.0001 0 0 0 8.25 46.21875 z"/>
</svg>
